<svg width="12" height="18" viewBox="0 0 12 18" fill="none" xmlns="http://www.w3.org/2000/svg">
<path fill-rule="evenodd" clip-rule="evenodd" d="M11.6869 16.4983L2.57931 8.99997L11.687 1.50155L11.687 1.50161C12.1043 1.15812 12.1043 0.601072 11.687 0.257584C11.2698 -0.0860291 10.5933 -0.0860405 10.176 0.257549L10.1759 0.257484L0.312919 8.37774L1.06868 8.99997L0.312919 9.6222L10.1759 17.7425L10.176 17.7424C10.5933 18.0859 11.2698 18.0859 11.687 17.7423C12.1043 17.3988 12.1043 16.8418 11.687 16.4983L11.6869 16.4983ZM1.06836 8.99979L0.312819 8.37774C-0.104451 8.72129 -0.104451 9.27828 0.312819 9.62183L1.06836 8.99979Z" fill="black"/>
</svg>
