<svg width="20" height="20" viewBox="0 0 20 20" fill="none" xmlns="http://www.w3.org/2000/svg">
<path fill-rule="evenodd" clip-rule="evenodd" d="M7.24663 0.829987H2.66329C1.65077 0.829987 0.829956 1.6508 0.829956 2.66332V9.07999C0.829956 10.0925 1.65077 10.9133 2.66329 10.9133H7.24663C8.25915 10.9133 9.07996 10.0925 9.07996 9.07999V2.66332C9.07996 1.6508 8.25915 0.829987 7.24663 0.829987Z" fill="#0077B6"/>
<path fill-rule="evenodd" clip-rule="evenodd" d="M17.3366 0.829987H12.7533C11.7407 0.829987 10.9199 1.6508 10.9199 2.66332V5.41332C10.9199 6.42585 11.7407 7.24666 12.7533 7.24666H17.3366C18.3491 7.24666 19.1699 6.42585 19.1699 5.41332V2.66332C19.1699 1.6508 18.3491 0.829987 17.3366 0.829987Z" fill="#0077B6"/>
<path fill-rule="evenodd" clip-rule="evenodd" d="M7.24663 12.75H2.66329C1.65077 12.75 0.829956 13.5708 0.829956 14.5833V17.3333C0.829956 18.3459 1.65077 19.1667 2.66329 19.1667H7.24663C8.25915 19.1667 9.07996 18.3459 9.07996 17.3333V14.5833C9.07996 13.5708 8.25915 12.75 7.24663 12.75Z" fill="#0077B6"/>
<path fill-rule="evenodd" clip-rule="evenodd" d="M17.3366 9.07999H12.7533C11.7407 9.07999 10.9199 9.9008 10.9199 10.9133V17.33C10.9199 18.3425 11.7407 19.1633 12.7533 19.1633H17.3366C18.3491 19.1633 19.1699 18.3425 19.1699 17.33V10.9133C19.1699 9.9008 18.3491 9.07999 17.3366 9.07999Z" fill="#0077B6"/>
</svg>
