<svg width="20" height="20" viewBox="0 0 20 20" fill="none" xmlns="http://www.w3.org/2000/svg">
<path fill-rule="evenodd" clip-rule="evenodd" d="M8.16329 15.4967C12.2134 15.4967 15.4967 12.2134 15.4967 8.16329C15.4967 4.1132 12.2134 0.829956 8.16329 0.829956C4.1132 0.829956 0.829956 4.1132 0.829956 8.16329C0.829956 12.2134 4.1132 15.4967 8.16329 15.4967Z" fill="#CCCCCC"/>
<path fill-rule="evenodd" clip-rule="evenodd" d="M18.9016 18.9016C18.8164 18.9875 18.715 19.0557 18.6033 19.1023C18.4916 19.1488 18.3718 19.1728 18.2508 19.1728C18.1298 19.1728 18.0099 19.1488 17.8982 19.1023C17.7865 19.0557 17.6852 18.9875 17.5999 18.9016L13.3099 14.5841C13.7816 14.2091 14.2091 13.7816 14.5841 13.3099L18.8741 17.5999C18.9618 17.6833 19.0322 17.7833 19.0811 17.894C19.13 18.0047 19.1565 18.124 19.1591 18.245C19.1616 18.3661 19.1402 18.4864 19.096 18.5991C19.0518 18.7118 18.9857 18.8146 18.9016 18.9016Z" fill="#CCCCCC"/>
</svg>
